<svg xmlns="http://www.w3.org/2000/svg" width="122" height="52" viewBox="0 0 122 52" fill="none"><path d="M12.69 13.6395H22.264V16.1715L20.6429 16.4633V24.5178C20.218 24.5386 19.7039 24.6324 19.1006 24.7991C18.4921 24.9658 17.7996 25.1534 17.0232 25.3514C16.2468 25.5493 15.3917 25.7317 14.4579 25.888C13.5241 26.0443 12.5222 26.1276 11.4415 26.1276C9.62113 26.1276 8.00013 25.8411 6.57846 25.2628C5.1568 24.6845 3.96072 23.877 2.99021 22.8402C2.0197 21.8034 1.27477 20.5687 0.765914 19.136C0.257053 17.7032 0 16.1403 0 14.4418C0 12.5194 0.314759 10.8001 0.949523 9.27883C1.58429 7.75754 2.45512 6.47069 3.57252 5.41308C4.68991 4.35548 6.0119 3.54273 7.53323 2.98006C9.05457 2.41739 10.7071 2.13606 12.4907 2.13606C13.3353 2.13606 14.1694 2.17253 14.993 2.25068C15.8166 2.32882 16.5826 2.41739 17.2855 2.5268C17.9885 2.63621 18.618 2.74562 19.1636 2.85502C19.7092 2.96964 20.1236 3.053 20.3964 3.11552L20.0397 9.03918H16.7032L15.7747 5.18906C15.6698 5.08486 15.5386 4.98066 15.3707 4.87647C15.2081 4.76706 14.9878 4.66807 14.7202 4.5795C14.4527 4.48572 14.1169 4.41278 13.7182 4.35027C13.3143 4.28775 12.8212 4.25649 12.2336 4.25649C11.2369 4.25649 10.3241 4.44404 9.50048 4.82437C8.67686 5.20469 7.9739 5.78299 7.38635 6.55926C6.7988 7.33554 6.34239 8.315 6.02239 9.48723C5.69714 10.6647 5.53451 12.0505 5.53451 13.6447C5.53451 14.9941 5.66042 16.2914 5.91222 17.5313C6.16403 18.7713 6.54699 19.8706 7.06109 20.824C7.5752 21.7774 8.23619 22.538 9.03883 23.1111C9.84147 23.6842 10.791 23.9707 11.8822 23.9707C12.7582 23.9707 13.5346 23.8718 14.2061 23.679C14.8776 23.4862 15.3812 23.2205 15.7117 22.8819V16.531L12.6848 16.1767V13.6447L12.69 13.6395ZM30.6313 0.718966L29.6608 0H29.6136L23.5755 0.750225V2.54764L25.8784 2.93317V23.4133L23.6384 23.7207V25.7786H32.9658V23.7207L30.6365 23.4133V0.718966H30.6313ZM45.703 10.1385L47.7122 10.5813L45.3673 19.6778L44.3181 23.8509L43.1115 19.6778L40.1633 10.5813L42.4925 10.1385V8.18996H33.5533V10.1541L34.9592 10.5813L40.52 25.7682H43.3004C42.9174 26.7476 42.5292 27.5239 42.1253 28.0918C41.7213 28.6597 41.3279 29.0869 40.9344 29.3734C40.541 29.66 40.1633 29.8371 39.8013 29.91C39.4341 29.983 39.0983 30.0194 38.7888 30.0194C38.1698 30.0194 37.6347 29.9725 37.173 29.8736C36.7166 29.7746 36.4071 29.6912 36.255 29.6183V33.3746C36.3389 33.4059 36.4753 33.4319 36.6642 33.458C36.853 33.484 37.0681 33.5049 37.3042 33.5257C37.5403 33.5465 37.7816 33.5622 38.0281 33.5726C38.2747 33.583 38.5003 33.5882 38.7101 33.5882C40.3993 33.5882 41.8367 32.9734 43.0171 31.7387C44.2027 30.504 45.2309 28.7065 46.107 26.3465C46.2014 26.1329 46.3483 25.7213 46.5476 25.1169C46.747 24.5126 46.983 23.7832 47.2506 22.9236C47.5181 22.0639 47.8171 21.1157 48.1476 20.0685C48.4781 19.0266 48.8139 17.9533 49.1496 16.854C49.4906 15.7547 49.8264 14.6659 50.1621 13.5874C50.4978 12.509 50.8126 11.5035 51.1116 10.5709L52.5333 10.1437V8.17954H45.7083V10.128L45.703 10.1385ZM65.7112 22.6735C65.0187 22.9288 64.1899 23.059 63.2351 23.059C62.5479 23.059 61.9236 22.9392 61.3675 22.6995C60.8114 22.4599 60.3393 22.0691 59.9564 21.5273C59.5681 20.9855 59.2796 20.2769 59.075 19.3965C58.8757 18.516 58.776 17.4427 58.776 16.1767C58.776 15.0618 58.8757 14.1136 59.0698 13.3217C59.2639 12.535 59.5262 11.8942 59.8514 11.394C60.1767 10.8939 60.5439 10.5344 60.9636 10.3052C61.378 10.0759 61.8187 9.96133 62.2856 9.96133C62.7525 9.96133 63.1616 10.0864 63.4921 10.3312C63.8226 10.5761 64.1007 10.9147 64.3263 11.342L65.2233 14.0407H67.9408L68.0929 8.80994C67.8883 8.74742 67.6207 8.66406 67.2902 8.55465C66.9597 8.44525 66.5715 8.34105 66.1151 8.24206C65.664 8.13786 65.1499 8.04929 64.5728 7.97115C63.9958 7.893 63.361 7.85653 62.6738 7.85653C61.3151 7.85653 60.0875 8.08576 58.9911 8.53902C57.8947 8.99229 56.9609 9.6331 56.1897 10.4563C55.4186 11.2794 54.8258 12.2641 54.4061 13.4103C53.9864 14.5565 53.7818 15.8173 53.7818 17.1979C53.7818 18.4743 53.9445 19.6622 54.2697 20.751C54.595 21.8399 55.0933 22.7829 55.7648 23.58C56.4363 24.3771 57.3019 25.0023 58.3511 25.4504C59.4003 25.8984 60.6541 26.1276 62.102 26.1276C62.8102 26.1276 63.4921 26.0443 64.1479 25.8828C64.8036 25.7213 65.3964 25.5129 65.9368 25.268C66.4771 25.0231 66.9493 24.7574 67.3584 24.4761C67.7676 24.1948 68.0771 23.9343 68.2922 23.6998L67.4739 21.8451C67.0017 22.1421 66.4142 22.4182 65.7217 22.6735H65.7112ZM87.1515 16.8905C87.1515 18.4847 86.9102 19.8653 86.4276 21.0324C85.945 22.1994 85.2997 23.158 84.4971 23.9082C83.6944 24.6585 82.7659 25.2159 81.7167 25.5806C80.6675 25.9453 79.5711 26.1276 78.4275 26.1276C77.0897 26.1276 75.9042 25.9192 74.8759 25.5077C73.8477 25.0961 72.9769 24.4969 72.2739 23.7207C71.571 22.9444 71.0359 21.9962 70.6739 20.8813C70.3119 19.7664 70.1336 18.5056 70.1336 17.0937C70.1336 15.5411 70.3749 14.1866 70.8575 13.03C71.3401 11.8734 71.9854 10.9147 72.788 10.1437C73.5907 9.37261 74.5192 8.80473 75.5737 8.42441C76.6281 8.04408 77.7298 7.85653 78.8681 7.85653C80.2059 7.85653 81.3914 8.06492 82.4197 8.47651C83.4479 8.8933 84.3135 9.48723 85.0164 10.2635C85.7194 11.0398 86.2492 11.988 86.606 13.1029C86.9679 14.2178 87.1463 15.4786 87.1463 16.8905H87.1515ZM81.979 17.3802C81.979 16.1819 81.9213 15.1243 81.8006 14.197C81.68 13.2696 81.4911 12.4985 81.2288 11.8734C80.9665 11.2482 80.6203 10.7793 80.1954 10.4563C79.7652 10.1333 79.2458 9.97175 78.6268 9.97175C78.0602 9.97175 77.5671 10.0968 77.1527 10.3469C76.7383 10.5969 76.3868 10.9929 76.1087 11.5295C75.8307 12.0661 75.6261 12.7538 75.4897 13.5926C75.3533 14.4314 75.2904 15.4317 75.2904 16.5987C75.2904 17.7658 75.3533 18.8546 75.474 19.782C75.5999 20.7093 75.794 21.4804 76.0668 22.1056C76.3396 22.7308 76.691 23.1997 77.116 23.5227C77.5409 23.8457 78.0655 24.0072 78.6845 24.0072C79.2511 24.0072 79.739 23.8822 80.1534 23.6321C80.5678 23.382 80.9088 22.9861 81.1816 22.4495C81.4544 21.9128 81.6537 21.2251 81.7849 20.3863C81.9108 19.5475 81.979 18.5472 81.979 17.3802ZM18.4134 40.7049C17.8101 40.2413 17.1019 39.8818 16.2888 39.6317C15.4757 39.3816 14.6048 39.2514 13.6763 39.241C14.395 39.1263 15.0612 38.9179 15.675 38.6106C16.2888 38.3032 16.8134 37.9072 17.2593 37.4123C17.7 36.9226 18.0514 36.339 18.3032 35.6618C18.555 34.9845 18.681 34.2186 18.681 33.359C18.681 31.5407 17.9937 30.207 16.614 29.3578C15.2343 28.5086 13.0677 28.0866 10.1143 28.0866C9.69458 28.0866 9.29588 28.097 8.91817 28.1178C8.54046 28.1387 8.16275 28.1595 7.78504 28.1856C7.40208 28.2116 7.00339 28.2324 6.57846 28.2533C6.15354 28.2741 5.68665 28.2845 5.17254 28.2845H0.272791V30.3425L2.77513 30.8166V49.1189L0.241315 49.5357V51.6353H5.10434C5.77583 51.6353 6.35813 51.6457 6.86699 51.6666C7.37061 51.6874 7.8375 51.7082 8.27292 51.7291C8.70833 51.7499 9.11228 51.7708 9.50048 51.7916C9.88868 51.8124 10.2874 51.8229 10.6966 51.8229C12.5799 51.8229 14.1432 51.6249 15.3812 51.2237C16.6193 50.8226 17.6108 50.2912 18.3452 49.6191C19.0796 48.947 19.599 48.1811 19.898 47.3163C20.197 46.4515 20.3439 45.5554 20.3439 44.6228C20.3439 43.7944 20.1708 43.0494 19.8246 42.3929C19.4783 41.7313 19.0062 41.1738 18.4029 40.7049H18.4134ZM7.65389 30.3112C7.81652 30.2904 8.0998 30.2591 8.49325 30.2174C8.89194 30.1757 9.31162 30.1549 9.75229 30.1549C10.5025 30.1549 11.1425 30.233 11.6671 30.3946C12.1917 30.5508 12.6166 30.7957 12.9314 31.1135C13.2514 31.4365 13.4769 31.8429 13.6186 32.3431C13.7602 32.838 13.8284 33.4215 13.8284 34.0832C13.8284 34.8021 13.7707 35.4325 13.6501 35.9796C13.5294 36.5266 13.3353 36.9851 13.0573 37.355C12.7792 37.7249 12.4172 38.001 11.9661 38.1886C11.5202 38.3761 10.9746 38.4699 10.3346 38.4699H9.69982C9.45326 38.4699 9.20146 38.4699 8.94965 38.4647C8.69784 38.4647 8.45128 38.4491 8.21521 38.4334C7.97914 38.4178 7.79029 38.4022 7.6434 38.3813V30.3112H7.65389ZM14.9353 47.035C14.7465 47.6081 14.4422 48.0926 14.033 48.4833C13.6186 48.8793 13.0887 49.1762 12.4435 49.3898C11.793 49.5982 11.0061 49.7024 10.0828 49.7024C9.8677 49.7024 9.63687 49.7024 9.39031 49.6868C9.14375 49.6764 8.90768 49.6608 8.68735 49.6399C8.46702 49.6191 8.26242 49.593 8.07882 49.5566C7.89521 49.5201 7.75356 49.4784 7.66438 49.4263V40.6372C7.77979 40.6268 7.95291 40.6164 8.18898 40.606C8.42505 40.5955 8.6821 40.5903 8.96014 40.5851C9.23818 40.5851 9.51097 40.5799 9.78376 40.5799H10.471C11.3051 40.5799 12.0238 40.6633 12.6271 40.8248C13.2304 40.9863 13.7235 41.2468 14.1117 41.6063C14.4999 41.9657 14.7832 42.4294 14.9615 43.0025C15.1399 43.5756 15.2343 44.2685 15.2343 45.0865C15.2343 45.8106 15.1399 46.4619 14.9511 47.035H14.9353ZM36.7639 39.9756C36.7639 38.9127 36.6484 37.9906 36.4176 37.2091C36.1868 36.4276 35.8196 35.7816 35.3212 35.271C34.8228 34.7604 34.1723 34.3801 33.375 34.1353C32.5776 33.8904 31.6071 33.7654 30.4634 33.7654C29.5349 33.7654 28.6378 33.8643 27.7617 34.0571C26.8857 34.2499 26.0883 34.4791 25.3696 34.75C24.6509 35.0157 24.0319 35.2919 23.5177 35.5732C23.0036 35.8545 22.6364 36.0838 22.4213 36.2557L23.3341 38.3136H23.3499C23.6594 38.1729 24.0319 38.0218 24.4673 37.8603C24.9027 37.704 25.3801 37.5582 25.8942 37.4279C26.4083 37.2977 26.9486 37.1935 27.5099 37.1049C28.0713 37.0163 28.6273 36.9747 29.1834 36.9747C30.2746 36.9747 31.0615 37.2247 31.5389 37.7197C32.0162 38.2146 32.2576 39.0482 32.2576 40.2152V40.9498C31.4444 40.9706 30.6313 41.028 29.8182 41.1165C29.005 41.2103 28.2234 41.3562 27.4732 41.5542C26.723 41.7521 26.0201 42.0074 25.3748 42.3148C24.7296 42.6222 24.163 42.9973 23.6856 43.4349C23.2082 43.8726 22.8305 44.3883 22.5577 44.9718C22.2849 45.5554 22.1485 46.2222 22.1485 46.9829C22.1485 47.8529 22.2849 48.6031 22.563 49.2388C22.841 49.8744 23.2187 50.3954 23.6961 50.8017C24.1735 51.2133 24.7348 51.5103 25.3696 51.7082C26.0096 51.901 26.6916 52 27.426 52C28.0975 52 28.706 51.9166 29.2621 51.7447C29.8182 51.578 30.3165 51.3644 30.752 51.1091C31.1874 50.8538 31.5651 50.5829 31.8694 50.2964C32.1736 50.0098 32.4202 49.7493 32.5933 49.5149V50.4058C32.5933 50.7653 32.63 51.0466 32.7035 51.255C32.7769 51.4634 32.8923 51.6249 33.0497 51.7395C33.2071 51.8541 33.4222 51.9219 33.6845 51.9531C33.9468 51.9844 34.2615 52 34.634 52C35.0537 52 35.4681 51.9792 35.8668 51.9375C36.2707 51.8958 36.6432 51.8489 36.9947 51.7916C37.3462 51.7343 37.6662 51.6718 37.9547 51.6093C38.2432 51.5415 38.4845 51.4894 38.6786 51.4478V49.5618H36.7639V39.9912V39.9756ZM32.2576 47.9675C32.0739 48.129 31.8536 48.2749 31.6071 48.4052C31.3605 48.5354 31.1087 48.6448 30.8516 48.7334C30.5946 48.8272 30.348 48.8949 30.1119 48.947C29.8759 48.9991 29.666 49.0251 29.4772 49.0251C28.6746 49.0251 28.066 48.7855 27.6463 48.3114C27.2319 47.8373 27.0221 47.1444 27.0221 46.2326C27.0221 45.7846 27.106 45.3574 27.2791 44.9614C27.447 44.5603 27.7355 44.2112 28.1342 43.9038C28.5382 43.5964 29.0732 43.3516 29.75 43.1692C30.4267 42.9869 31.2608 42.8931 32.2576 42.8931V47.9728V47.9675ZM47.1404 49.2231L49.5221 49.5357V51.6353H40.0006V49.5357L42.2879 49.2231V35.8702H42.2984V33.2965C42.2984 33.2965 45.3935 31.7439 47.1457 27.1905V49.2231H47.1404ZM64.9453 39.8505C64.9453 38.7877 64.8299 37.8655 64.5991 37.0841C64.3682 36.3026 64.001 35.6565 63.5026 35.146C63.0043 34.6354 62.3538 34.2551 61.5564 34.0102C60.759 33.7654 59.7885 33.6403 58.6449 33.6403C57.7163 33.6403 56.8193 33.7393 55.9432 33.9321C55.0671 34.1248 54.2697 34.3541 53.551 34.625C52.8323 34.8907 52.2133 35.1668 51.6992 35.4482C51.1851 35.7295 50.8178 35.9587 50.6028 36.1306L51.5156 38.1886H51.5313C51.8408 38.0479 52.2133 37.8968 52.6487 37.7353C53.0841 37.579 53.5615 37.4331 54.0756 37.3029C54.5897 37.1726 55.13 37.0684 55.6914 36.9799C56.2527 36.8913 56.8088 36.8496 57.3648 36.8496C58.456 36.8496 59.2429 37.0997 59.7203 37.5946C60.1977 38.0896 60.439 38.9232 60.439 40.0902V40.8248C59.6259 40.8456 58.8127 40.9029 57.9996 40.9915C57.1865 41.0853 56.4048 41.2311 55.6546 41.4291C54.9045 41.6271 54.2015 41.8824 53.5563 42.1898C52.911 42.4971 52.3444 42.8723 51.867 43.3099C51.3897 43.7475 51.012 44.2633 50.7392 44.8468C50.4664 45.4303 50.33 46.0972 50.33 46.8578C50.33 47.7279 50.4664 48.4781 50.7444 49.1137C51.0224 49.7493 51.4002 50.2703 51.8775 50.6767C52.3549 51.0883 52.9162 51.3852 53.551 51.5832C54.191 51.776 54.873 51.875 55.6074 51.875C56.2789 51.875 56.8875 51.7916 57.4435 51.6197C57.9996 51.453 58.498 51.2394 58.9334 50.9841C59.3688 50.7288 59.7465 50.4579 60.0508 50.1713C60.355 49.8848 60.6016 49.6243 60.7747 49.3898V50.2807C60.7747 50.6402 60.8114 50.9216 60.8849 51.1299C60.9583 51.3383 61.0737 51.4999 61.2311 51.6145C61.3885 51.7291 61.6036 51.7968 61.8659 51.8281C62.1282 51.8593 62.4429 51.875 62.8154 51.875C63.2351 51.875 63.6495 51.8541 64.0482 51.8124C64.4522 51.7708 64.8246 51.7239 65.1761 51.6666C65.5276 51.6093 65.8476 51.5467 66.1361 51.4842C66.4247 51.4165 66.666 51.3644 66.8601 51.3227V49.4367H64.9453V39.8661V39.8505ZM60.4337 47.8477C60.2501 48.0092 60.0298 48.1551 59.7832 48.2853C59.5367 48.4156 59.2849 48.525 59.0278 48.6136C58.7708 48.7073 58.5242 48.7751 58.2881 48.8272C58.0521 48.8793 57.8422 48.9053 57.6534 48.9053C56.8507 48.9053 56.2422 48.6657 55.8225 48.1916C55.4081 47.7175 55.1982 47.0245 55.1982 46.1128C55.1982 45.6648 55.2822 45.2376 55.4553 44.8416C55.6232 44.4404 55.9117 44.0914 56.3104 43.784C56.7143 43.4766 57.2494 43.2317 57.9262 43.0494C58.6029 42.867 59.437 42.7733 60.4337 42.7733V47.8529V47.8477ZM86.5325 49.1658L88.7253 49.4576V51.5155H80.0327V49.4576L81.7167 49.1658V40.606C81.7167 39.9026 81.68 39.2878 81.6065 38.7721C81.5331 38.2563 81.4019 37.8343 81.2131 37.5061C81.0242 37.1778 80.7619 36.9382 80.4262 36.7767C80.0904 36.6204 79.6603 36.537 79.1357 36.537C78.7842 36.537 78.438 36.5735 78.1022 36.6516C77.7665 36.7298 77.4412 36.8288 77.137 36.9486C76.8327 37.0684 76.5547 37.2091 76.3028 37.355C76.051 37.5061 75.8307 37.6467 75.6471 37.7926V49.145L77.7193 49.4524V51.5103H68.8535V49.4524L70.847 49.145V37.3498L68.7486 36.7037V34.3853L74.2779 33.6351H74.3566L75.175 34.2968V36.1202C75.5159 35.8128 75.9146 35.5107 76.3815 35.2137C76.8484 34.9167 77.3468 34.6562 77.8871 34.4322C78.4275 34.2082 78.994 34.0259 79.5921 33.8904C80.1901 33.7497 80.7934 33.682 81.3967 33.682C82.3829 33.682 83.2118 33.8122 83.8728 34.0675C84.539 34.3228 85.0636 34.7344 85.4571 35.2971C85.8505 35.8597 86.1286 36.5839 86.2912 37.4696C86.4538 38.3553 86.5378 39.4181 86.5378 40.6685V49.1658H86.5325ZM104.075 47.5872L104.893 49.4419C104.678 49.6764 104.364 49.9369 103.96 50.2182C103.55 50.4995 103.078 50.7653 102.538 51.0101C101.998 51.255 101.4 51.4582 100.744 51.6249C100.088 51.7864 99.4062 51.8698 98.6979 51.8698C97.2448 51.8698 95.9963 51.6457 94.9471 51.1925C93.8979 50.7444 93.0323 50.1192 92.3608 49.3221C91.6893 48.525 91.1857 47.582 90.8657 46.4931C90.5457 45.4043 90.3778 44.2216 90.3778 42.94C90.3778 41.5594 90.5877 40.2986 91.0021 39.1524C91.4165 38.0062 92.0146 37.0215 92.7857 36.1984C93.5569 35.3752 94.4907 34.7344 95.5871 34.2811C96.6835 33.8279 97.9111 33.5986 99.2698 33.5986C99.957 33.5986 100.592 33.6351 101.169 33.7133C101.746 33.7914 102.26 33.88 102.711 33.9842C103.162 34.0884 103.556 34.1926 103.886 34.2968C104.217 34.401 104.484 34.4895 104.689 34.5521L104.537 39.7828H101.819L100.922 37.0841C100.697 36.6568 100.419 36.3182 100.088 36.0733C99.7576 35.8285 99.3589 35.7034 98.8816 35.7034C98.4042 35.7034 97.9792 35.8181 97.5596 36.0473C97.1399 36.2765 96.7727 36.6412 96.4474 37.1362C96.1222 37.6311 95.8651 38.2719 95.6658 39.0638C95.4664 39.8557 95.372 40.8039 95.372 41.9188C95.372 43.1849 95.4717 44.2633 95.671 45.1386C95.8704 46.019 96.1641 46.7276 96.5523 47.2694C96.9405 47.8112 97.4074 48.202 97.9635 48.4416C98.5196 48.6813 99.1439 48.8011 99.8311 48.8011C100.791 48.8011 101.615 48.6709 102.307 48.4156C103 48.1603 103.587 47.8842 104.059 47.5872H104.075ZM121.974 39.8245C121.791 35.6826 119.561 33.6143 115.286 33.6143C114.021 33.6143 112.867 33.8227 111.829 34.2447C110.79 34.6667 109.898 35.271 109.158 36.0629C108.419 36.8548 107.842 37.8187 107.438 38.9492C107.029 40.0798 106.829 41.3614 106.829 42.7941C106.829 44.1122 106.987 45.3313 107.307 46.4463C107.627 47.5612 108.12 48.5198 108.796 49.3221C109.468 50.1244 110.328 50.7496 111.377 51.2029C112.421 51.6509 113.67 51.8802 115.123 51.8802C115.831 51.8802 116.529 51.7968 117.216 51.6353C117.898 51.4738 118.538 51.2654 119.131 51.0205C119.724 50.7757 120.248 50.5048 120.705 50.213C121.161 49.9212 121.518 49.6451 121.78 49.3794L120.978 47.5247C120.752 47.6706 120.479 47.8165 120.17 47.9675C119.855 48.1186 119.504 48.2593 119.121 48.3791C118.732 48.5042 118.313 48.6031 117.862 48.6865C117.41 48.7699 116.923 48.8115 116.393 48.8115C115.732 48.8115 115.128 48.7073 114.578 48.5042C114.027 48.301 113.549 47.9728 113.151 47.5247C112.747 47.0766 112.427 46.4931 112.18 45.7742C111.934 45.0552 111.781 44.1956 111.734 43.1796H121.817C121.901 42.7889 121.953 42.3148 121.98 41.7469C122.006 41.179 122.006 40.5434 121.985 39.8349L121.974 39.8245ZM117.279 40.3142C117.279 40.408 117.279 40.5018 117.274 40.606C117.269 40.7102 117.263 40.8039 117.258 40.8977C117.253 40.9915 117.253 41.0592 117.253 41.1113H111.708C111.75 39.986 111.855 39.069 112.023 38.3553C112.191 37.6467 112.411 37.0893 112.673 36.6881C112.936 36.2869 113.24 36.016 113.586 35.8754C113.932 35.7347 114.305 35.6618 114.703 35.6618C115.228 35.6618 115.658 35.7972 115.994 36.0629C116.33 36.3286 116.592 36.6725 116.781 37.0893C116.97 37.5113 117.101 37.9854 117.174 38.522C117.248 39.0586 117.284 39.59 117.284 40.111V40.309L117.279 40.3142Z" fill="#1C1C28"></path></svg>